<?xml version="1.0" encoding="UTF-8" standalone="no"?>
<!-- Created with Inkscape (http://www.inkscape.org/) -->

<svg
   width="400"
   height="170"
   viewBox="0 0 400 170"
   version="1.1"
   id="svg1"
   sodipodi:docname="kalista-supplychain-400x170.svg"
   inkscape:version="1.4.4 (dcaf3e7, 2026-05-05)"
   xmlns:inkscape="http://www.inkscape.org/namespaces/inkscape"
   xmlns:sodipodi="http://sodipodi.sourceforge.net/DTD/sodipodi-0.dtd"
   xmlns="http://www.w3.org/2000/svg"
   xmlns:svg="http://www.w3.org/2000/svg">
  <sodipodi:namedview
     id="namedview1"
     pagecolor="#ffffff"
     bordercolor="#000000"
     borderopacity="0.25"
     inkscape:showpageshadow="2"
     inkscape:pageopacity="0.0"
     inkscape:pagecheckerboard="0"
     inkscape:deskcolor="#d1d1d1"
     showgrid="false"
     inkscape:zoom="0.4923231"
     inkscape:cx="8.1247458"
     inkscape:cy="415.37763"
     inkscape:window-width="1920"
     inkscape:window-height="1009"
     inkscape:window-x="-8"
     inkscape:window-y="-8"
     inkscape:window-maximized="1"
     inkscape:current-layer="svg1" />
  <defs
     id="defs1" />
  <text
     xml:space="preserve"
     style="font-style:normal;font-weight:normal;font-size:10.9325px;line-height:0%;font-family:sans-serif;letter-spacing:0px;word-spacing:0px;fill:#000080;fill-opacity:1;stroke:none;stroke-width:0.911038px;stroke-linecap:butt;stroke-linejoin:miter;stroke-opacity:1"
     x="93.922325"
     y="127.63784"
     id="text4185-9-2-3"
     transform="scale(1.4532778,0.68809969)"><tspan
       id="tspan4187-3-0-3"
       x="93.922325"
       y="127.63784"
       style="font-style:normal;font-variant:normal;font-weight:normal;font-stretch:normal;font-size:206.617px;line-height:1.25;font-family:'Cry Uncial';-inkscape-font-specification:'Cry Uncial';fill:#000080;fill-opacity:1;stroke-width:0.911038px"> </tspan></text>
  <text
     xml:space="preserve"
     style="font-style:normal;font-weight:normal;font-size:10.9325px;line-height:0%;font-family:sans-serif;letter-spacing:0px;word-spacing:0px;fill:#000080;fill-opacity:1;stroke:none;stroke-width:0.911038px;stroke-linecap:butt;stroke-linejoin:miter;stroke-opacity:1"
     x="255.99429"
     y="128.0965"
     id="text4185-6-2-5-2"
     transform="scale(1.4532778,0.68809969)"><tspan
       id="tspan4187-7-5-9-6"
       x="255.99429"
       y="128.0965"
       style="font-style:normal;font-variant:normal;font-weight:normal;font-stretch:normal;font-size:206.617px;line-height:1.25;font-family:'Cry Uncial';-inkscape-font-specification:'Cry Uncial';fill:#000080;fill-opacity:1;stroke-width:0.911038px"> </tspan></text>
  <g
     id="text4189-1-2-7-6-9"
     style="font-style:normal;font-weight:normal;font-size:113.851px;line-height:125%;font-family:sans-serif;letter-spacing:0px;word-spacing:0px;display:inline;fill:#000080;fill-opacity:1;stroke:none;stroke-width:1px;stroke-linecap:butt;stroke-linejoin:miter;stroke-opacity:1"
     transform="matrix(1.1008082,-0.0571244,0.04487031,0.74092986,41.21528,-205.10312)">
    <path
       id="path4173-9-8-1-6"
       style="font-style:normal;font-variant:normal;font-weight:normal;font-stretch:normal;font-family:'Ramsey SD';-inkscape-font-specification:'Ramsey SD';fill:#000080;fill-opacity:1"
       d="m 223.13877,424.20169 c 0.14712,5.81762 1.36069,7.53913 2.71149,7.79692 2.06405,0.39392 6.14389,-1.3276 7.47063,-2.00631 1.0196,-0.52159 3.02327,-2.2662 5.09213,-4.78706 -1.51613,2.56655 -3.78312,6.10358 -6.28784,8.22879 -4.48691,3.62863 -6.05825,5.48792 -13.0701,4.93101 -9.5108,-0.75539 -7.4772,-18.29628 -7.28101,-27.77691 0.17125,-8.27547 0.29633,-16.88843 0.14928,-28.19085 -1.77667,0.34283 -2.11766,0.6093 -3.62192,1.03009 -1.50182,0.13488 -5.66599,0.84234 -6.43403,0.16074 7.79401,-5.10997 6.60156,-5.97524 12.79171,-14.40318 1.13465,-1.54484 3.24164,-4.84353 6.35409,-7.79219 4.37472,-4.14452 8.42558,-5.07827 11.64461,-6.10957 -8.88617,5.02817 -9.5568,13.08241 -9.68357,14.56185 -0.0699,0.81594 -0.0775,1.31987 -0.0949,3.64477 1.77129,-0.30486 10.14693,0.0682 14.03816,1.04397 -5.94857,1.43971 -11.91833,3.79362 -13.95172,7.1277 -0.31594,19.552 -0.32536,42.54021 0.17305,42.54021 z m -80.68735,-13.59056 c 0.1639,3.84338 -0.12854,13.55097 4.36201,14.72338 4.12214,1.07624 8.4962,-0.66084 11.04986,-8.68854 -1.79358,6.83592 -3.05572,12.41814 -9.35549,15.32447 -2.35428,1.08612 -5.5822,1.27106 -8.85481,0.28557 -8.93594,-2.69087 -8.66174,-11.15615 -8.70477,-17.43499 -0.0577,-8.41076 2.10031,-24.07202 0.9297,-36.63562 -0.0789,-0.84719 -0.16479,-3.38334 -1.49501,-4.48174 -1.68437,-1.39037 -3.20001,-0.8268 -3.20001,-0.8268 -0.90241,0.23122 -3.60236,1.27052 -4.71124,4.29061 1.44383,-4.96409 5.49228,-7.27728 7.2652,-8.30945 1.40395,-0.81736 2.97267,-1.49697 5.28631,-1.72121 4.12639,-0.39992 6.77983,2.2769 7.70503,6.19702 -0.12269,13.42139 -0.71288,27.04714 -0.27678,37.2773 z m -0.57622,-58.9402 a 8.5646806,6.5084088 89.487902 0 1 -5.98543,9.16234 8.5646806,6.5084088 89.487902 0 1 -6.99273,-7.92175 8.5646806,6.5084088 89.487902 0 1 5.98544,-9.16234 8.5646806,6.5084088 89.487902 0 1 6.99272,7.92175 z m 118.98146,25.07076 c -0.65446,-0.0779 -1.27835,-0.0246 -1.83381,0.19867 -10.40612,4.67463 -13.45345,9.78859 -15.05944,13.35038 2.09521,-2.57838 4.34218,-5.62267 8.22956,-6.84662 4.69534,-1.47831 7.44175,4.38604 9.43242,9.91385 0.4667,1.29595 0.92587,2.64149 1.38137,4.02366 -3.14376,3.97316 -8.24025,8.08285 -13.07191,11.16543 -2.89886,1.84947 -8.85659,7.12288 -8.29542,15.51413 0.47577,7.11435 2.08483,10.49282 6.61986,15.05872 2.21622,2.2313 10.68973,4.65127 16.17689,0.54339 6.17824,-4.62527 2.664,-2.14278 6.56583,-5.64105 0.93717,-0.84023 1.80778,-1.8896 2.58237,-2.97997 1.57146,4.07118 3.21962,7.50335 4.99931,9.85147 2.43481,3.21252 6.14716,4.00273 9.27247,2.60757 3.22161,-1.43818 5.13833,-3.84821 7.1004,-7.65594 1.3284,-2.57797 2.8564,-8.74497 2.8564,-8.74497 0,0 -4.38444,8.6011 -6.98246,8.50593 -1.60777,-0.0589 -4.27378,-2.99548 -5.54262,-4.70562 -2.25493,-3.03921 -3.29185,-6.63215 -4.67983,-10.59394 -2.53966,-7.24903 -8.88152,-32.33774 -12.33222,-38.409 -1.15029,-2.02386 -4.58318,-4.81832 -7.41917,-5.15609 z m 3.42921,24.64782 c 2.69991,8.69405 5.27489,18.32249 8.05147,26.25102 -0.51566,0.78329 -1.133,1.55851 -1.87234,2.27554 -2.49249,2.41728 -3.67469,4.04491 -7.79387,5.0376 -3.57035,0.86043 -10.39201,-3.91964 -11.70544,-9.08211 -0.79639,-3.13022 -0.84617,-8.1422 2.10078,-12.31972 1.82525,-2.58744 7.19436,-6.94368 11.2194,-12.16233 z M 47.578548,359.87392 c -0.654458,-0.0779 -1.27835,-0.0246 -1.833811,0.19866 -10.40612,4.67464 -13.453333,9.78596 -15.059333,13.34775 2.095217,-2.57838 4.342076,-5.62004 8.229446,-6.84398 4.695343,-1.47832 7.439991,4.38589 9.430661,9.9137 0.466693,1.29596 0.927635,2.64164 1.383139,4.02381 -3.143761,3.97316 -8.240139,8.08022 -13.071804,11.16281 -2.898858,1.84947 -8.856589,7.12288 -8.295427,15.51413 0.475775,7.11435 2.084729,10.49544 6.619757,15.06134 2.216218,2.2313 10.689734,4.65126 16.176886,0.54338 6.178249,-4.62526 2.664111,-2.14541 6.565942,-5.64367 0.937168,-0.84024 1.807671,-1.88697 2.58227,-2.97734 1.57146,4.07116 3.219619,7.50335 4.999301,9.85147 2.434815,3.21252 6.147171,4.00273 9.272476,2.60757 3.221607,-1.43818 5.138325,-3.84821 7.100406,-7.65594 1.3284,-2.57797 2.856499,-8.74761 2.856499,-8.74761 0,0 -4.384438,8.60112 -6.982465,8.50595 -1.607768,-0.059 -4.273779,-2.99549 -5.542616,-4.70562 -2.254933,-3.03923 -3.29373,-6.62966 -4.681704,-10.59145 -2.539674,-7.24904 -8.879643,-32.34024 -12.330345,-38.4115 -1.15028,-2.02386 -4.583285,-4.81569 -7.419278,-5.15346 z m 3.429319,24.64518 c 2.699912,8.69406 5.274775,18.32513 8.051367,26.25366 -0.515663,0.78329 -1.132897,1.55587 -1.872239,2.2729 -2.492491,2.41728 -3.67657,4.04741 -7.795746,5.0401 -3.570356,0.86043 -10.390132,-3.92214 -11.703565,-9.08461 -0.796384,-3.13022 -0.847933,-8.14233 2.099008,-12.31985 1.825258,-2.58743 7.196139,-6.94354 11.221175,-12.1622 z m 121.419983,32.07765 c -2.19307,2.67662 -5.46679,5.94751 -5.16361,7.23135 0.28595,1.21082 2.61993,3.12903 4.05496,3.73857 1.46545,0.62246 7.90395,1.90296 9.99221,1.64709 3.44176,-0.24603 7.43328,-1.18921 9.29355,-6.38939 0.47805,-1.33633 1.23158,-7.52824 -0.93037,-10.7671 -5.34933,-4.30283 -9.52587,-3.24994 -14.99482,-5.65286 -6.9978,-3.29733 -13.33993,-8.62537 -10.92191,-19.13415 0.43926,-1.74791 0.85524,-3.30353 1.83691,-5.25553 1.06289,-2.1135 2.44067,-4.1816 4.25418,-5.83556 4.56619,-3.97262 9.48308,-4.76905 14.62529,-5.30249 1.98444,-0.20006 4.05877,0.26444 5.36141,0.90596 1.33723,0.65854 2.2482,1.40684 2.85174,2.12332 0.57325,0.68051 0.6327,2.74562 0.38002,3.55353 -0.94268,2.21523 -2.47776,3.63416 -3.40296,4.40162 -1.33688,1.10977 -2.881,1.82834 -4.51031,3.07348 0.52585,-1.08958 3.27875,-4.80751 2.51079,-5.52768 -3.3881,-3.1773 -7.05812,-3.13928 -9.93295,-2.19677 -2.33804,0.76653 -5.32458,4.54974 -6.01613,7.42928 -0.72045,2.99981 1.18191,5.58664 2.80381,7.13 3.90006,3.71126 9.91534,4.45481 14.39072,6.18884 4.24737,1.64568 6.34856,5.38124 8.07396,9.9776 1.23625,3.50783 1.24008,7.37673 0.93558,9.50028 -0.57473,4.00828 -2.35364,10.08986 -8.59963,14.92816 -5.9706,4.62497 -17.3971,3.4403 -23.58446,0.98865 -1.69069,-0.6699 -2.81113,-1.66726 -3.65449,-2.99516 -1.62579,-4.2476 1.3056,-7.48756 3.46557,-9.39947 1.56132,-1.37793 4.89686,-2.91021 6.88057,-4.36152 z m -67.8995,-3.00232 c 0.17467,6.5983 1.57709,8.55267 3.13672,8.84716 2.38314,0.45 7.09163,-1.49607 8.62271,-2.26375 1.17663,-0.58996 3.4883,-2.56547 5.87458,-5.42127 -1.74815,2.90848 -4.36232,6.91646 -7.2521,9.32285 -5.17685,4.10838 -6.98932,6.21464 -15.084524,5.57202 -10.980253,-0.87165 -8.647148,-20.76253 -8.428511,-31.51471 0.292853,-14.40296 0.550159,-43.37815 -0.03015,-65.06182 -0.0011,-1.46341 -0.08948,-2.53956 -0.265238,-3.22847 0.06753,-3.95695 -3.483898,-5.07423 -6.796408,-3.58077 -0.815526,0.36768 -3.573374,1.95742 -6.593565,4.30898 1.05034,-1.54806 4.899951,-6.05715 6.967644,-7.70856 2.534298,-2.02408 4.523595,-3.04007 6.801019,-4.06998 2.277372,-1.11598 4.719398,-1.30525 6.823924,-1.3218 3.753439,-0.0295 6.046659,4.97266 6.723729,11.82823 0.722,30.54715 -1.22433,56.92121 -0.49981,84.29189 z M -31.824404,285.16218 c 0,0 -9.4437,38.32561 -8.430397,57.95724 1.031512,19.9841 11.469712,39.65377 14.666793,58.876 6.018815,36.18849 -13.237028,84.40189 -16.688793,90.36599 3.507469,-4.68907 30.031399,-53.5539 27.286676,-90.8063 -0.002,-0.0267 -0.0037,-0.0529 -0.0056,-0.0795 1.313586,-2.02488 2.541451,-4.13414 3.744303,-6.28298 8.3717536,4.06738 13.5883346,8.54929 19.2590117,27.13357 L 25.71408,423.69131 C 18.863599,408.74547 9.0203471,395.81759 -6.6559194,386.87432 0.4232744,374.36773 9.1792253,362.31672 30.89966,358.76198 L 4.3354559,356.71393 c -8.7681432,5.86633 -15.1775779,16.97386 -21.1818049,27.65602 -1.516821,-11.46929 -3.183341,-22.44182 -3.239941,-39.47679 -0.110517,-33.23338 21.4266324,-56.94997 21.4266324,-56.94997 z m -10.452397,207.19923 c -0.06406,0.0857 -0.24931,0.4117 -0.297609,0.46736 0.07931,-0.10295 0.179928,-0.26402 0.297609,-0.46736 z m -0.297609,0.46736 c -0.08974,0.10343 -0.153124,0.15266 -0.185276,0.14916 l 0.0017,0.003 c 0.0372,0.009 0.09959,-0.0428 0.183617,-0.15192 z" />
  </g>
  <path
     d="m 108.76943,120.41671 -0.11931,-0.21476 q -0.97834,-0.692 -2.45779,-0.692 -0.90676,0 -1.64649,0.26248 -0.71586,0.23863 -0.71586,0.5727 0,0.33406 0.62041,0.57269 0.35793,0.11931 2.00442,0.35793 2.43393,0.33407 3.46,0.90676 0.78745,0.42951 1.21697,1.14538 0.45338,0.71586 0.45338,1.55103 0,1.45559 -1.50331,2.41008 -1.50331,0.95448 -3.81794,0.95448 -2.076,0 -3.53159,-0.692 -0.38179,0.31021 -0.76359,0.31021 -0.66813,0 -1.04993,-0.59656 -0.16703,-0.3102 -0.16703,-1.0022 v -0.78745 q 0,-0.81131 0.23862,-1.09766 0.35793,-0.5011 0.97834,-0.5011 0.90676,0 1.21697,1.04993 1.02607,0.93062 2.98276,0.93062 1.14539,0 1.9567,-0.31021 0.83517,-0.3102 0.83517,-0.71586 0,-0.52497 -0.81131,-0.83517 -0.54883,-0.21476 -2.19531,-0.40566 -2.50552,-0.26248 -3.62704,-1.02607 -1.12152,-0.76359 -1.12152,-2.17145 0,-1.43173 1.384,-2.33849 1.384,-0.93062 3.53159,-0.93062 1.74193,0 3.07821,0.62042 0.26248,-0.62042 0.76359,-0.62042 1.12152,0 1.12152,1.5749 v 0.8829 q 0,0.78745 -0.21476,1.09765 -0.40566,0.47725 -0.97835,0.47725 -0.71586,0 -1.12152,-0.73973 z m 16.72734,-2.98276 v 8.04153 q 1.45559,0 1.45559,1.1931 0,0.64428 -0.57269,1.02607 -0.26248,0.16704 -1.00221,0.16704 h -2.2669 v -1.14538 q -0.88289,0.83517 -1.59876,1.14538 -0.692,0.3102 -1.67034,0.3102 -1.67035,0 -2.83959,-0.88289 -1.40787,-1.04994 -1.40787,-3.1498 v -4.31904 h -0.38179 -0.26248 -0.0954 q -0.50111,0 -0.85904,-0.33407 -0.35793,-0.35793 -0.35793,-0.85904 0,-0.692 0.57269,-1.02607 0.26248,-0.16703 1.00221,-0.16703 h 2.768 v 6.63366 q 0,1.71807 2.09987,1.71807 0.90676,0 1.50331,-0.3102 0.59655,-0.33407 1.52717,-1.31242 v -4.3429 h -0.83517 q -0.81131,0 -1.07379,-0.23862 -0.50111,-0.35793 -0.50111,-0.95449 0,-0.692 0.57269,-1.02607 0.26249,-0.16703 1.00221,-0.16703 z m 6.29961,8.85284 v 4.08042 h 1.384 q 0.78745,0 1.09766,0.21476 0.47724,0.35793 0.47724,0.97834 0,0.64428 -0.57269,1.02607 -0.26248,0.16704 -1.00221,0.16704 h -4.15201 q -0.81131,0 -1.09765,-0.23862 -0.47724,-0.35794 -0.47724,-0.95449 0,-0.692 0.57269,-1.02607 0.26248,-0.16703 1.0022,-0.16703 h 0.3818 v -10.54705 h -0.3818 q -0.78744,0 -1.09765,-0.21476 -0.47724,-0.40566 -0.47724,-0.97835 0,-0.692 0.57269,-1.02607 0.3102,-0.16703 1.0022,-0.16703 h 2.76801 v 1.07379 q 1.62262,-1.384 3.6509,-1.384 2.50552,0 4.15201,1.55104 1.67034,1.52717 1.67034,3.8418 0,2.19531 -1.64648,3.6509 -1.64649,1.45559 -4.12815,1.45559 -1.95669,0 -3.69862,-1.33628 z m 3.55545,-6.77684 q -1.50331,0 -2.41007,0.692 -0.52497,0.3818 -0.83517,0.97835 -0.31021,0.59655 -0.31021,1.16924 0,1.26469 0.97834,2.076 1.00221,0.81132 2.57711,0.81132 1.55104,0 2.52938,-0.81132 1.00221,-0.81131 1.00221,-2.05214 0,-0.59655 -0.3102,-1.1931 -0.31021,-0.59655 -0.83518,-0.97835 -0.90676,-0.692 -2.38621,-0.692 z m 10.76182,6.77684 v 4.08042 h 1.384 q 0.78745,0 1.09766,0.21476 0.47724,0.35793 0.47724,0.97834 0,0.64428 -0.57269,1.02607 -0.26248,0.16704 -1.00221,0.16704 h -4.152 q -0.81132,0 -1.09766,-0.23862 -0.47724,-0.35794 -0.47724,-0.95449 0,-0.692 0.57269,-1.02607 0.26248,-0.16703 1.00221,-0.16703 h 0.38179 v -10.54705 h -0.38179 q -0.78745,0 -1.09766,-0.21476 -0.47724,-0.40566 -0.47724,-0.97835 0,-0.692 0.57269,-1.02607 0.3102,-0.16703 1.00221,-0.16703 h 2.768 v 1.07379 q 1.62262,-1.384 3.6509,-1.384 2.50552,0 4.15201,1.55104 1.67034,1.52717 1.67034,3.8418 0,2.19531 -1.64648,3.6509 -1.64649,1.45559 -4.12815,1.45559 -1.95669,0 -3.69862,-1.33628 z m 3.55545,-6.77684 q -1.50331,0 -2.41007,0.692 -0.52497,0.3818 -0.83517,0.97835 -0.31021,0.59655 -0.31021,1.16924 0,1.26469 0.97834,2.076 1.00221,0.81132 2.57711,0.81132 1.55104,0 2.52938,-0.81132 1.00221,-0.81131 1.00221,-2.05214 0,-0.59655 -0.3102,-1.1931 -0.31021,-0.59655 -0.83518,-0.97835 -0.90676,-0.692 -2.38621,-0.692 z m 14.96155,-6.53821 v 12.50374 h 2.91117 q 0.76359,0 1.0738,0.21476 0.5011,0.38179 0.5011,0.97834 0,0.64428 -0.57269,1.02607 -0.28634,0.16704 -1.00221,0.16704 h -8.20856 q -0.81131,0 -1.07379,-0.23862 -0.50111,-0.35794 -0.50111,-0.95449 0,-0.692 0.57269,-1.02607 0.23862,-0.16703 1.00221,-0.16703 h 2.91118 v -10.11753 h -1.86125 q -0.83517,0 -1.09765,-0.23863 -0.50111,-0.33406 -0.50111,-0.95448 0,-0.692 0.57269,-1.02607 0.26249,-0.16703 1.02607,-0.16703 z m 11.74016,14.81836 -4.10428,-7.96994 q -1.16924,-0.14317 -1.16924,-1.19311 0,-0.5011 0.28634,-0.81131 0.31021,-0.33407 0.81131,-0.38179 0,0 0.47725,0 h 2.14759 q 0.78744,0 1.09765,0.21476 0.47724,0.40565 0.47724,0.97834 0,1.14538 -1.40786,1.19311 l 2.72028,5.32125 2.86345,-5.32125 q -1.52717,0 -1.52717,-1.19311 0,-0.5011 0.28634,-0.81131 0.31021,-0.33407 0.81131,-0.38179 0,0 0.50111,0 h 2.19531 q 0.78745,0 1.0738,0.21476 0.5011,0.35793 0.5011,0.97834 0,1.0738 -1.24083,1.19311 l -5.48828,10.54705 h 0.11931 q 0.78745,0 1.09765,0.21476 0.47725,0.40565 0.47725,0.97834 0,0.64428 -0.57269,1.02607 -0.26249,0.16704 -1.00221,0.16704 h -5.13035 q -0.81131,0 -1.0738,-0.23862 -0.5011,-0.35794 -0.5011,-0.95449 0,-0.692 0.57269,-1.02607 0.31021,-0.16703 1.00221,-0.16703 h 2.38621 z m 35.74544,-9.09146 v 1.83738 q 0,0.78745 -0.21475,1.0738 -0.3818,0.5011 -0.97835,0.5011 -0.52497,0 -0.85904,-0.33407 -0.21475,-0.16703 -0.35793,-0.81131 -0.11931,-0.57269 -0.54883,-0.85904 -0.97834,-0.59655 -2.52938,-0.59655 -1.76579,0 -2.768,1.02607 -0.95449,0.95449 -0.95449,2.38621 0,2.93504 4.19973,2.93504 1.5749,0 2.50552,-0.31021 0.45338,-0.14317 1.19311,-0.73972 0.31021,-0.28635 0.71586,-0.28635 0.47724,0 0.83518,0.35793 0.35793,0.35794 0.35793,0.85904 0,0.95448 -1.52718,1.74193 -1.5749,0.76359 -4.24745,0.76359 -3.29297,0 -4.96332,-1.64648 -1.45559,-1.45559 -1.45559,-3.67477 0,-2.55324 1.69421,-4.17587 1.71807,-1.62262 4.41449,-1.62262 2.05214,0 3.43614,0.71586 0.21476,-0.71586 0.90676,-0.71586 1.14538,0 1.14538,1.5749 z m 6.08485,-5.7269 v 5.60759 q 1.43172,-1.45559 3.26911,-1.45559 1.90896,0 3.05435,1.09766 1.16924,1.07379 1.16924,2.86345 v 4.39063 h 0.14317 q 0.78745,0 1.09766,0.21476 0.47724,0.40565 0.47724,0.97834 0,0.692 -0.57269,1.02607 -0.26248,0.16704 -1.00221,0.16704 h -2.67255 q -0.78745,0 -1.09766,-0.21476 -0.50111,-0.3818 -0.50111,-0.97835 0,-0.64428 0.5727,-1.02607 0.3102,-0.16703 1.02607,-0.16703 h 0.14317 v -4.08042 q 0,-0.62042 -0.0954,-0.90676 -0.0954,-0.28635 -0.40566,-0.52497 -0.54882,-0.45338 -1.59876,-0.45338 -0.83517,0 -1.40786,0.31021 -0.57269,0.31021 -1.59876,1.28855 v 4.36677 h 0.14317 q 0.78745,0 1.09766,0.21476 0.5011,0.38179 0.5011,0.97834 0,0.64428 -0.57269,1.02607 -0.26248,0.16704 -1.02607,0.16704 h -2.67255 q -0.76359,0 -1.0738,-0.21476 -0.5011,-0.3818 -0.5011,-0.97835 0,-0.692 0.57269,-1.02607 0.3102,-0.16703 1.00221,-0.16703 h 0.14317 v -10.11753 h -0.3818 q -0.78744,0 -1.09765,-0.21476 -0.47724,-0.40566 -0.47724,-0.97835 0,-0.692 0.57269,-1.02607 0.3102,-0.16703 1.0022,-0.16703 z m 18.94651,14.88995 v -0.54883 q -1.78965,0.93062 -3.98497,0.93062 -1.76579,0 -3.03048,-0.93062 -1.26469,-0.95449 -1.26469,-2.29076 0,-1.16925 0.93062,-2.21918 1.62262,-1.81352 4.844,-1.81352 1.09766,0 2.50552,0.23862 v -0.54883 q 0,-1.16924 -2.24303,-1.16924 -1.21697,0 -2.76801,0.40566 -0.59655,0.14317 -0.95448,0.14317 -0.5011,0 -0.83517,-0.33407 -0.33407,-0.35793 -0.33407,-0.8829 0,-0.76358 0.71586,-1.00221 2.02828,-0.71586 4.10428,-0.71586 2.19531,0 3.43614,0.93062 1.26469,0.93063 1.26469,2.60097 v 4.82015 h 0.3818 q 0.78745,0 1.09765,0.21476 0.47725,0.40565 0.47725,0.97834 0,0.692 -0.57269,1.02607 -0.23862,0.16704 -1.00221,0.16704 z m 0,-3.22139 v -1.1931 q -1.50331,-0.26249 -2.64869,-0.26249 -1.21697,0 -2.17145,0.52497 -0.93062,0.52497 -0.93062,1.21697 0,0.40565 0.52496,0.66814 0.52497,0.26248 1.28856,0.26248 1.95669,0 3.93724,-1.21697 z m 13.38666,-7.20635 v 8.04153 h 2.91117 q 0.76359,0 1.0738,0.21476 0.5011,0.38179 0.5011,0.97834 0,0.64428 -0.57269,1.02607 -0.28634,0.16704 -1.00221,0.16704 h -8.20856 q -0.81131,0 -1.07379,-0.23862 -0.50111,-0.35794 -0.50111,-0.95449 0,-0.692 0.57269,-1.02607 0.23862,-0.16703 1.00221,-0.16703 h 2.91118 v -5.65532 h -1.86125 q -0.83517,0 -1.09765,-0.23862 -0.50111,-0.35793 -0.50111,-0.95449 0,-0.692 0.57269,-1.02607 0.26249,-0.16703 1.02607,-0.16703 z m -0.33407,-4.46221 v 2.52938 h -2.81573 v -2.52938 z m 10.9527,4.46221 v 1.14538 q 0.85904,-0.81131 1.5749,-1.12152 0.71587,-0.33407 1.69421,-0.33407 1.62262,0 2.83959,0.8829 1.40787,1.04993 1.40787,3.12593 v 4.34291 q 1.45558,0 1.45558,1.1931 0,0.692 -0.57269,1.02607 -0.26248,0.16704 -1.00221,0.16704 h -2.12372 q -1.59876,0 -1.59876,-1.19311 0,-1.1931 1.45559,-1.1931 v -4.24746 q 0,-1.71807 -2.14759,-1.71807 -0.83518,0 -1.50332,0.35793 -0.64427,0.35793 -1.47945,1.26469 v 4.34291 h 0.14318 q 0.76358,0 1.07379,0.21476 0.5011,0.38179 0.5011,0.97834 0,0.64428 -0.57269,1.02607 -0.26248,0.16704 -1.0022,0.16704 h -2.67256 q -0.76359,0 -1.09766,-0.23862 -0.47724,-0.35794 -0.47724,-0.95449 0,-0.692 0.57269,-1.02607 0.31021,-0.16703 1.00221,-0.16703 h 0.14317 v -5.65532 q -1.45558,-0.0477 -1.45558,-1.19311 0,-0.5011 0.28634,-0.81131 0.31021,-0.33407 0.81131,-0.38179 0,0 0.50111,0 z m 27.34599,0 v 0.57269 q 1.09765,-0.8829 2.02828,-0.8829 1.36014,0 2.43393,1.16924 1.07379,-1.16924 2.48166,-1.16924 1.33628,0 2.21917,0.90676 0.90676,0.8829 0.90676,2.21918 v 5.2258 q 1.43173,0 1.43173,1.1931 0,1.19311 -1.5749,1.19311 h -2.24304 v -7.42112 q 0,-0.52496 -0.19089,-0.71586 -0.16704,-0.21476 -0.64428,-0.21476 -0.47724,0 -0.85904,0.21476 -0.35793,0.21476 -0.95448,0.85904 v 4.89173 q 0.66814,0 1.04993,0.33407 0.3818,0.3102 0.3818,0.85903 0,0.64428 -0.57269,1.02607 -0.26249,0.16704 -1.00221,0.16704 h -2.24304 v -7.42112 q 0,-0.5011 -0.1909,-0.71586 -0.19089,-0.21476 -0.64427,-0.21476 -0.85904,0 -1.81352,1.0738 v 4.89173 q 1.45559,0 1.45559,1.1931 0,0.64428 -0.5727,1.02607 -0.26248,0.16704 -1.0022,0.16704 h -2.09987 q -0.83517,0 -1.14538,-0.23862 -0.45338,-0.31021 -0.45338,-0.95449 0,-1.1931 1.43173,-1.1931 v -5.65532 q -1.43173,-0.0477 -1.43173,-1.19311 0,-0.47724 0.31021,-0.81131 0.28634,-0.33407 0.78745,-0.38179 0,0 0.5011,0 z m 20.23507,10.42774 v -0.54883 q -1.78965,0.93062 -3.98497,0.93062 -1.76579,0 -3.03048,-0.93062 -1.2647,-0.95449 -1.2647,-2.29076 0,-1.16925 0.93063,-2.21918 1.62262,-1.81352 4.844,-1.81352 1.09766,0 2.50552,0.23862 v -0.54883 q 0,-1.16924 -2.24303,-1.16924 -1.21697,0 -2.76801,0.40566 -0.59655,0.14317 -0.95448,0.14317 -0.50111,0 -0.83517,-0.33407 -0.33407,-0.35793 -0.33407,-0.8829 0,-0.76358 0.71586,-1.00221 2.02828,-0.71586 4.10428,-0.71586 2.19531,0 3.43614,0.93062 1.26469,0.93063 1.26469,2.60097 v 4.82015 h 0.3818 q 0.78745,0 1.09765,0.21476 0.47725,0.40565 0.47725,0.97834 0,0.692 -0.57269,1.02607 -0.23863,0.16704 -1.00221,0.16704 z m 0,-3.22139 v -1.1931 q -1.50331,-0.26249 -2.64869,-0.26249 -1.21697,0 -2.17145,0.52497 -0.93062,0.52497 -0.93062,1.21697 0,0.40565 0.52496,0.66814 0.52497,0.26248 1.28856,0.26248 1.95669,0 3.93724,-1.21697 z m 9.68802,-7.20635 v 1.14538 q 0.85903,-0.81131 1.5749,-1.12152 0.71586,-0.33407 1.6942,-0.33407 1.62263,0 2.83959,0.8829 1.40787,1.04993 1.40787,3.12593 v 4.34291 q 1.45559,0 1.45559,1.1931 0,0.692 -0.57269,1.02607 -0.26249,0.16704 -1.00221,0.16704 h -2.12373 q -1.59876,0 -1.59876,-1.19311 0,-1.1931 1.45559,-1.1931 v -4.24746 q 0,-1.71807 -2.14759,-1.71807 -0.83517,0 -1.50331,0.35793 -0.64428,0.35793 -1.47945,1.26469 v 4.34291 h 0.14317 q 0.76359,0 1.07379,0.21476 0.50111,0.38179 0.50111,0.97834 0,0.64428 -0.57269,1.02607 -0.26249,0.16704 -1.00221,0.16704 h -2.67256 q -0.76358,0 -1.09765,-0.23862 -0.47724,-0.35794 -0.47724,-0.95449 0,-0.692 0.57269,-1.02607 0.3102,-0.16703 1.0022,-0.16703 h 0.14318 v -5.65532 q -1.45559,-0.0477 -1.45559,-1.19311 0,-0.5011 0.28634,-0.81131 0.31021,-0.33407 0.81132,-0.38179 0,0 0.5011,0 z m 18.94652,10.42774 v -0.54883 q -1.78966,0.93062 -3.98497,0.93062 -1.7658,0 -3.03049,-0.93062 -1.26469,-0.95449 -1.26469,-2.29076 0,-1.16925 0.93062,-2.21918 1.62263,-1.81352 4.84401,-1.81352 1.09766,0 2.50552,0.23862 v -0.54883 q 0,-1.16924 -2.24304,-1.16924 -1.21696,0 -2.768,0.40566 -0.59655,0.14317 -0.95448,0.14317 -0.50111,0 -0.83518,-0.33407 -0.33407,-0.35793 -0.33407,-0.8829 0,-0.76358 0.71587,-1.00221 2.02827,-0.71586 4.10428,-0.71586 2.19531,0 3.43614,0.93062 1.26469,0.93063 1.26469,2.60097 v 4.82015 h 0.38179 q 0.78745,0 1.09766,0.21476 0.47724,0.40565 0.47724,0.97834 0,0.692 -0.57269,1.02607 -0.23862,0.16704 -1.00221,0.16704 z m 0,-3.22139 v -1.1931 q -1.50331,-0.26249 -2.64869,-0.26249 -1.21697,0 -2.17145,0.52497 -0.93063,0.52497 -0.93063,1.21697 0,0.40565 0.52497,0.66814 0.52497,0.26248 1.28855,0.26248 1.9567,0 3.93725,-1.21697 z m 14.81838,-6.34732 v -0.85903 h 2.768 q 0.78745,0 1.09766,0.21476 0.47724,0.40565 0.47724,0.97834 0,0.692 -0.57269,1.02607 -0.26248,0.16704 -1.00221,0.16704 h -0.38179 v 8.51877 q 0,1.8851 -1.31241,3.1498 -1.28856,1.26469 -3.24525,1.26469 h -2.67256 q -0.81131,0 -1.07379,-0.23862 -0.5011,-0.35794 -0.5011,-0.95449 0,-0.692 0.57269,-1.02607 0.26248,-0.16703 1.0022,-0.16703 h 2.60097 q 1.02607,0 1.62263,-0.54883 0.62041,-0.54883 0.62041,-1.47945 v -1.31242 q -1.5749,1.16925 -3.36456,1.16925 -2.41007,0 -4.03269,-1.5749 -1.59876,-1.59876 -1.59876,-3.96111 0,-2.38621 1.59876,-3.96111 1.62262,-1.59876 4.03269,-1.59876 1.9567,0 3.36456,1.1931 z m -3.31683,1.19311 q -1.36014,0 -2.33849,0.93062 -0.95448,0.90676 -0.95448,2.21918 0,1.31241 0.95448,2.24303 0.97835,0.93063 2.33849,0.93063 1.36014,0 2.33848,-0.90676 0.97835,-0.93063 0.97835,-2.21918 0,-1.33628 -0.97835,-2.2669 -0.95448,-0.93062 -2.33848,-0.93062 z m 20.97479,4.27132 h -9.73574 q 0.81131,2.09986 3.91338,2.09986 1.33628,0 3.88953,-0.66814 0.47724,-0.11931 0.78744,-0.11931 0.47725,0 0.81132,0.35793 0.33407,0.33407 0.33407,0.83518 0,0.692 -0.83518,1.07379 -0.81131,0.35793 -2.38621,0.62042 -1.55103,0.28634 -2.81573,0.28634 -2.768,0 -4.53379,-1.55104 -1.7658,-1.55103 -1.7658,-3.98497 0,-2.36234 1.7658,-3.96111 1.78965,-1.62262 4.39062,-1.62262 2.67256,0 4.41449,1.62262 1.7658,1.62263 1.7658,4.08042 z m -9.66416,-2.09987 h 7.01546 q -0.28634,-0.97835 -1.24083,-1.55104 -0.95448,-0.59655 -2.2669,-0.59655 -1.31241,0 -2.29076,0.59655 -0.95448,0.59656 -1.21697,1.55104 z m 14.22182,-4.22359 v 0.57269 q 1.09765,-0.8829 2.02828,-0.8829 1.36014,0 2.43393,1.16924 1.07379,-1.16924 2.48166,-1.16924 1.33628,0 2.21917,0.90676 0.90676,0.8829 0.90676,2.21918 v 5.2258 q 1.43173,0 1.43173,1.1931 0,1.19311 -1.5749,1.19311 h -2.24304 v -7.42112 q 0,-0.52496 -0.19089,-0.71586 -0.16704,-0.21476 -0.64428,-0.21476 -0.47724,0 -0.85904,0.21476 -0.35793,0.21476 -0.95448,0.85904 v 4.89173 q 0.66814,0 1.04993,0.33407 0.3818,0.3102 0.3818,0.85903 0,0.64428 -0.57269,1.02607 -0.26249,0.16704 -1.00221,0.16704 h -2.24304 v -7.42112 q 0,-0.5011 -0.1909,-0.71586 -0.19089,-0.21476 -0.64427,-0.21476 -0.85904,0 -1.81352,1.0738 v 4.89173 q 1.45559,0 1.45559,1.1931 0,0.64428 -0.5727,1.02607 -0.26248,0.16704 -1.0022,0.16704 h -2.09987 q -0.83517,0 -1.14538,-0.23862 -0.45338,-0.31021 -0.45338,-0.95449 0,-1.1931 1.43173,-1.1931 v -5.65532 q -1.43173,-0.0477 -1.43173,-1.19311 0,-0.47724 0.31021,-0.81131 0.28634,-0.33407 0.78745,-0.38179 0,0 0.5011,0 z m 24.07689,6.32346 h -9.73574 q 0.81131,2.09986 3.91339,2.09986 1.33627,0 3.88952,-0.66814 0.47724,-0.11931 0.78745,-0.11931 0.47724,0 0.81131,0.35793 0.33407,0.33407 0.33407,0.83518 0,0.692 -0.83518,1.07379 -0.81131,0.35793 -2.38621,0.62042 -1.55103,0.28634 -2.81572,0.28634 -2.76801,0 -4.5338,-1.55104 -1.7658,-1.55103 -1.7658,-3.98497 0,-2.36234 1.7658,-3.96111 1.78965,-1.62262 4.39062,-1.62262 2.67256,0 4.41449,1.62262 1.7658,1.62263 1.7658,4.08042 z m -9.66415,-2.09987 h 7.01545 q -0.28634,-0.97835 -1.24082,-1.55104 -0.95449,-0.59655 -2.2669,-0.59655 -1.31242,0 -2.29077,0.59655 -0.95448,0.59656 -1.21696,1.55104 z m 15.51036,-4.22359 v 1.14538 q 0.85904,-0.81131 1.5749,-1.12152 0.71586,-0.33407 1.69421,-0.33407 1.62262,0 2.83959,0.8829 1.40786,1.04993 1.40786,3.12593 v 4.34291 q 1.45559,0 1.45559,1.1931 0,0.692 -0.57269,1.02607 -0.26248,0.16704 -1.00221,0.16704 h -2.12372 q -1.59876,0 -1.59876,-1.19311 0,-1.1931 1.45558,-1.1931 v -4.24746 q 0,-1.71807 -2.14758,-1.71807 -0.83518,0 -1.50332,0.35793 -0.64427,0.35793 -1.47945,1.26469 v 4.34291 h 0.14318 q 0.76358,0 1.07379,0.21476 0.5011,0.38179 0.5011,0.97834 0,0.64428 -0.57269,1.02607 -0.26248,0.16704 -1.0022,0.16704 h -2.67256 q -0.76359,0 -1.09766,-0.23862 -0.47724,-0.35794 -0.47724,-0.95449 0,-0.692 0.57269,-1.02607 0.31021,-0.16703 1.00221,-0.16703 h 0.14317 v -5.65532 q -1.45559,-0.0477 -1.45559,-1.19311 0,-0.5011 0.28635,-0.81131 0.31021,-0.33407 0.81131,-0.38179 0,0 0.50111,0 z m 14.77064,2.38621 v 4.67697 q 0,0.66814 0.1909,0.8829 0.42952,0.47724 1.86124,0.47724 1.88511,0 3.48387,-0.81131 0.5011,-0.26248 0.83517,-0.26248 0.47725,0 0.81132,0.35793 0.33406,0.35793 0.33406,0.85903 0,0.42952 -0.26248,0.71587 -0.26248,0.26248 -0.93062,0.57269 -0.85904,0.40565 -2.12373,0.66814 -1.24083,0.28634 -2.17145,0.28634 -2.02828,0 -3.22138,-0.8829 -1.19311,-0.8829 -1.19311,-2.41007 v -5.13035 h -0.83517 q -0.78745,0 -1.09766,-0.23862 -0.47724,-0.35793 -0.47724,-0.95449 0,-0.692 0.57269,-1.02607 0.26248,-0.16703 1.00221,-0.16703 h 0.83517 v -2.09987 q 0,-0.78745 0.23862,-1.09765 0.35794,-0.47724 0.95449,-0.47724 0.692,0 1.02607,0.57269 0.16703,0.26248 0.16703,1.0022 v 2.09987 h 4.31904 q 0.76359,0 1.09766,0.21476 0.47724,0.40565 0.47724,0.97834 0,0.692 -0.57269,1.02607 -0.26248,0.16704 -1.00221,0.16704 z"
     id="text2"
     style="font-weight:bold;font-size:23.8621px;font-family:'Miriam Mono CLM';-inkscape-font-specification:'Miriam Mono CLM Bold';fill:#800080;stroke-width:2.38621"
     transform="scale(0.89966269,1.1115277)"
     aria-label="supply chain management" />
</svg>
